<svg xmlns="http://www.w3.org/2000/svg" viewBox="0 0 336 387.17"><defs><style>.cls-1{fill:#231f20;}</style></defs><title>Asset 1</title><g id="Layer_2" data-name="Layer 2"><g id="Layer_1-2" data-name="Layer 1"><path class="cls-1" d="M275,148,274.34,1.23,336,0V207.14l-6.79,8q-27.73,32.68-38.84,70.9a497.15,497.15,0,0,0-16,78.91l-2.46,22.2h-58a378.86,378.86,0,0,0-8.32-80.77q-8.31-38.22-37.91-72.75-15.42,17.9-23.74,35.76a199.18,199.18,0,0,0-12.95,37,275.14,275.14,0,0,0-6.47,38.84q-1.84,19.74-4.93,41.31a78.81,78.81,0,0,1-12.33.62H64.12q-4.32-37-5.86-58.27a172.08,172.08,0,0,0-6.78-38.22,150.74,150.74,0,0,0-16.65-35.14Q23.42,237.36,0,207.14V.62H11.71q9.86.61,19.12.3T49.94.62H61.65L61,147.34l29.6,66,53.63-71.51a63.28,63.28,0,0,1,10.48-12.33q5.55-4.93,15.41-4.94,8.63,0,16,9.87a55.34,55.34,0,0,1,5.55,8q2.46,4.34,5.55,9.25A40.42,40.42,0,0,0,201,156a16.69,16.69,0,0,1,3.08,4.31l47.47,61.65q-4.32-10.47-.31-22.5a106.53,106.53,0,0,1,12-24.35c.4-.82.92-1.75,1.54-2.78a14.22,14.22,0,0,1,2.16-2.77l.61-1.23.62-.62q1.23-3.08,3.7-10.48a15.37,15.37,0,0,0,1.54-4.93A9.76,9.76,0,0,1,275,148Z"/></g></g></svg>